<svg width="1024" height="1024" viewBox="0 0 1024 1024" fill="none" xmlns="http://www.w3.org/2000/svg">
<rect width="1024" height="1024" fill="#F5F5F5"/>
<rect width="1024" height="1024" fill="url(#paint0_linear_0_1)"/>
<path d="M156.336 686.359V336.164H264.539V378.156H211.219V644.367H264.539V686.359H156.336ZM322.352 618V574.055H402.625C419.552 574.055 432.508 570.669 441.492 563.898C450.477 556.997 454.969 547.036 454.969 534.016V533.625C454.969 525.031 452.885 517.805 448.719 511.945C444.552 505.956 438.367 501.464 430.164 498.469C422.091 495.474 412.065 493.977 400.086 493.977H322.352V453.938H393.055C409.721 453.938 422.352 450.617 430.945 443.977C439.669 437.206 444.031 427.766 444.031 415.656V415.266C444.031 404.068 440.19 395.409 432.508 389.289C424.826 383.039 414.083 379.914 400.281 379.914H322.352V336.164H415.516C433.354 336.164 448.719 339.029 461.609 344.758C474.5 350.487 484.461 358.69 491.492 369.367C498.523 379.914 502.039 392.414 502.039 406.867V407.258C502.039 417.544 499.63 427.115 494.812 435.969C490.125 444.693 483.68 451.984 475.477 457.844C467.273 463.573 457.964 467.154 447.547 468.586V469.758C460.698 470.669 472.352 474.185 482.508 480.305C492.664 486.294 500.607 494.237 506.336 504.133C512.195 513.898 515.125 524.966 515.125 537.336V537.727C515.125 554.133 511.154 568.326 503.211 580.305C495.398 592.284 484.201 601.594 469.617 608.234C455.164 614.745 437.846 618 417.664 618H322.352ZM292.859 618V336.164H351.844V618H292.859ZM548.719 618V336.164H735.438V384.797H607.703V452.375H728.211V498.469H607.703V569.367H735.438V618H548.719ZM867.664 686.359H759.461V644.367H812.977V378.156H759.461V336.164H867.664V686.359Z" fill="url(#paint1_linear_0_1)"/>
<defs>
<linearGradient id="paint0_linear_0_1" x1="512" y1="0" x2="512" y2="1024" gradientUnits="userSpaceOnUse">
<stop stop-color="#313131"/>
<stop offset="1" stop-color="#141414"/>
</linearGradient>
<linearGradient id="paint1_linear_0_1" x1="512" y1="276" x2="512" y2="676" gradientUnits="userSpaceOnUse">
<stop stop-color="white"/>
<stop offset="1" stop-color="#B9B9B9"/>
</linearGradient>
</defs>
</svg>
