<svg width="712" height="351" viewBox="0 0 712 351" fill="none" xmlns="http://www.w3.org/2000/svg">
<path d="M0 350.195V0H108.203V41.9922H54.8828V308.203H108.203V350.195H0ZM166.016 281.836V237.891H246.289C263.216 237.891 276.172 234.505 285.156 227.734C294.141 220.833 298.633 210.872 298.633 197.852V197.461C298.633 188.867 296.549 181.641 292.383 175.781C288.216 169.792 282.031 165.299 273.828 162.305C265.755 159.31 255.729 157.812 243.75 157.812H166.016V117.773H236.719C253.385 117.773 266.016 114.453 274.609 107.812C283.333 101.042 287.695 91.6016 287.695 79.4922V79.1016C287.695 67.9036 283.854 59.2448 276.172 53.125C268.49 46.875 257.747 43.75 243.945 43.75H166.016V0H259.18C277.018 0 292.383 2.86458 305.273 8.59375C318.164 14.3229 328.125 22.526 335.156 33.2031C342.188 43.75 345.703 56.25 345.703 70.7031V71.0938C345.703 81.3802 343.294 90.9505 338.477 99.8047C333.789 108.529 327.344 115.82 319.141 121.68C310.938 127.409 301.628 130.99 291.211 132.422V133.594C304.362 134.505 316.016 138.021 326.172 144.141C336.328 150.13 344.271 158.073 350 167.969C355.859 177.734 358.789 188.802 358.789 201.172V201.562C358.789 217.969 354.818 232.161 346.875 244.141C339.062 256.12 327.865 265.43 313.281 272.07C298.828 278.581 281.51 281.836 261.328 281.836H166.016ZM136.523 281.836V0H195.508V281.836H136.523ZM392.383 281.836V0H579.102V48.6328H451.367V116.211H571.875V162.305H451.367V233.203H579.102V281.836H392.383ZM711.328 350.195H603.125V308.203H656.641V41.9922H603.125V0H711.328V350.195Z" fill="url(#paint0_linear_1_2)"/>
<defs>
<linearGradient id="paint0_linear_1_2" x1="355.664" y1="-60.1641" x2="355.664" y2="339.836" gradientUnits="userSpaceOnUse">
<stop stop-color="white"/>
<stop offset="1" stop-color="#B9B9B9"/>
</linearGradient>
</defs>
</svg>
